<mxfile host="app.diagrams.net" modified="2023-11-02T01:53:49.649Z" agent="Mozilla/5.0 (Windows NT 10.0; Win64; x64) AppleWebKit/537.36 (KHTML, like Gecko) Chrome/118.0.0.0 Safari/537.36" etag="jSQCmhX_R1ma9Rfquzek" version="22.0.8" type="github">
  <diagram id="C5RBs43oDa-KdzZeNtuy" name="Page-1">
    <mxGraphModel dx="733" dy="398" grid="1" gridSize="10" guides="1" tooltips="1" connect="1" arrows="1" fold="1" page="1" pageScale="1" pageWidth="827" pageHeight="1169" math="0" shadow="0">
      <root>
        <mxCell id="WIyWlLk6GJQsqaUBKTNV-0" />
        <mxCell id="WIyWlLk6GJQsqaUBKTNV-1" parent="WIyWlLk6GJQsqaUBKTNV-0" />
        <mxCell id="j2lomWEq6NnCFCQyWof3-3" value="" style="edgeStyle=orthogonalEdgeStyle;rounded=0;orthogonalLoop=1;jettySize=auto;html=1;" edge="1" parent="WIyWlLk6GJQsqaUBKTNV-1" source="j2lomWEq6NnCFCQyWof3-0" target="j2lomWEq6NnCFCQyWof3-1">
          <mxGeometry relative="1" as="geometry" />
        </mxCell>
        <mxCell id="j2lomWEq6NnCFCQyWof3-0" value="start" style="strokeWidth=2;html=1;shape=mxgraph.flowchart.terminator;whiteSpace=wrap;" vertex="1" parent="WIyWlLk6GJQsqaUBKTNV-1">
          <mxGeometry x="390" y="50" width="100" height="50" as="geometry" />
        </mxCell>
        <mxCell id="j2lomWEq6NnCFCQyWof3-4" value="" style="edgeStyle=orthogonalEdgeStyle;rounded=0;orthogonalLoop=1;jettySize=auto;html=1;" edge="1" parent="WIyWlLk6GJQsqaUBKTNV-1" source="j2lomWEq6NnCFCQyWof3-1" target="j2lomWEq6NnCFCQyWof3-2">
          <mxGeometry relative="1" as="geometry" />
        </mxCell>
        <mxCell id="j2lomWEq6NnCFCQyWof3-1" value="masukan bilangan" style="shape=parallelogram;perimeter=parallelogramPerimeter;whiteSpace=wrap;html=1;fixedSize=1;" vertex="1" parent="WIyWlLk6GJQsqaUBKTNV-1">
          <mxGeometry x="380" y="170" width="120" height="60" as="geometry" />
        </mxCell>
        <mxCell id="j2lomWEq6NnCFCQyWof3-6" value="" style="edgeStyle=orthogonalEdgeStyle;rounded=0;orthogonalLoop=1;jettySize=auto;html=1;" edge="1" parent="WIyWlLk6GJQsqaUBKTNV-1" source="j2lomWEq6NnCFCQyWof3-2" target="j2lomWEq6NnCFCQyWof3-5">
          <mxGeometry relative="1" as="geometry" />
        </mxCell>
        <mxCell id="j2lomWEq6NnCFCQyWof3-2" value="bilangan dibagi dua" style="rounded=0;whiteSpace=wrap;html=1;" vertex="1" parent="WIyWlLk6GJQsqaUBKTNV-1">
          <mxGeometry x="380" y="290" width="120" height="60" as="geometry" />
        </mxCell>
        <mxCell id="j2lomWEq6NnCFCQyWof3-8" value="" style="edgeStyle=orthogonalEdgeStyle;rounded=0;orthogonalLoop=1;jettySize=auto;html=1;" edge="1" parent="WIyWlLk6GJQsqaUBKTNV-1" source="j2lomWEq6NnCFCQyWof3-5" target="j2lomWEq6NnCFCQyWof3-7">
          <mxGeometry relative="1" as="geometry" />
        </mxCell>
        <mxCell id="j2lomWEq6NnCFCQyWof3-10" value="" style="edgeStyle=orthogonalEdgeStyle;rounded=0;orthogonalLoop=1;jettySize=auto;html=1;" edge="1" parent="WIyWlLk6GJQsqaUBKTNV-1" source="j2lomWEq6NnCFCQyWof3-5" target="j2lomWEq6NnCFCQyWof3-9">
          <mxGeometry relative="1" as="geometry" />
        </mxCell>
        <mxCell id="j2lomWEq6NnCFCQyWof3-5" value="sisa=?" style="rhombus;whiteSpace=wrap;html=1;" vertex="1" parent="WIyWlLk6GJQsqaUBKTNV-1">
          <mxGeometry x="400" y="410" width="80" height="80" as="geometry" />
        </mxCell>
        <mxCell id="j2lomWEq6NnCFCQyWof3-7" value="bilangan genap" style="shape=parallelogram;perimeter=parallelogramPerimeter;whiteSpace=wrap;html=1;fixedSize=1;" vertex="1" parent="WIyWlLk6GJQsqaUBKTNV-1">
          <mxGeometry x="540" y="420" width="120" height="60" as="geometry" />
        </mxCell>
        <mxCell id="j2lomWEq6NnCFCQyWof3-15" value="" style="edgeStyle=orthogonalEdgeStyle;rounded=0;orthogonalLoop=1;jettySize=auto;html=1;" edge="1" parent="WIyWlLk6GJQsqaUBKTNV-1" source="j2lomWEq6NnCFCQyWof3-9" target="j2lomWEq6NnCFCQyWof3-11">
          <mxGeometry relative="1" as="geometry" />
        </mxCell>
        <mxCell id="j2lomWEq6NnCFCQyWof3-9" value="bilangan ganjil" style="shape=parallelogram;perimeter=parallelogramPerimeter;whiteSpace=wrap;html=1;fixedSize=1;" vertex="1" parent="WIyWlLk6GJQsqaUBKTNV-1">
          <mxGeometry x="380" y="580" width="120" height="60" as="geometry" />
        </mxCell>
        <mxCell id="j2lomWEq6NnCFCQyWof3-11" value="finish" style="strokeWidth=2;html=1;shape=mxgraph.flowchart.terminator;whiteSpace=wrap;" vertex="1" parent="WIyWlLk6GJQsqaUBKTNV-1">
          <mxGeometry x="390" y="700" width="100" height="50" as="geometry" />
        </mxCell>
        <mxCell id="j2lomWEq6NnCFCQyWof3-12" value="" style="endArrow=classic;startArrow=classic;html=1;rounded=0;exitX=1;exitY=0.5;exitDx=0;exitDy=0;" edge="1" parent="WIyWlLk6GJQsqaUBKTNV-1" source="j2lomWEq6NnCFCQyWof3-9">
          <mxGeometry width="50" height="50" relative="1" as="geometry">
            <mxPoint x="490" y="200" as="sourcePoint" />
            <mxPoint x="600" y="470" as="targetPoint" />
            <Array as="points">
              <mxPoint x="600" y="610" />
            </Array>
          </mxGeometry>
        </mxCell>
        <mxCell id="j2lomWEq6NnCFCQyWof3-13" value="ya" style="text;html=1;align=center;verticalAlign=middle;resizable=0;points=[];autosize=1;strokeColor=none;fillColor=none;" vertex="1" parent="WIyWlLk6GJQsqaUBKTNV-1">
          <mxGeometry x="490" y="418" width="40" height="30" as="geometry" />
        </mxCell>
        <mxCell id="j2lomWEq6NnCFCQyWof3-14" value="tidak" style="text;html=1;align=center;verticalAlign=middle;resizable=0;points=[];autosize=1;strokeColor=none;fillColor=none;" vertex="1" parent="WIyWlLk6GJQsqaUBKTNV-1">
          <mxGeometry x="395" y="508" width="50" height="30" as="geometry" />
        </mxCell>
      </root>
    </mxGraphModel>
  </diagram>
</mxfile>
